# xmcd CD database file
#
# Track frame offsets:
#	187
#	13695
#	28405
#	43422
#	59547
#	75062
#	88870
#	102830
#	121002
#	135785
#
# Disc length: 2044 seconds
#
# Revision: 0
# Processed by: cddbd v1.5PL3 Copyright (c) Steve Scherf et al.
# Submitted via: CDex 1.51
#
DISCID=7607fa0a
DTITLE=岩崎宏美 - CD FILE VOL.1
DYEAR=1900
DGENRE=Pop
TTITLE0=二重唱
TTITLE1=月見草
TTITLE2=ロマンス
TTITLE3=私たち
TTITLE4=センチメンタル
TTITLE5=そうなのよ
TTITLE6=ファンタジー
TTITLE7=パピヨン
TTITLE8=未来
TTITLE9=夏からのメッセージ
EXTD=
EXTT0=
EXTT1=
EXTT2=
EXTT3=
EXTT4=
EXTT5=
EXTT6=
EXTT7=
EXTT8=
EXTT9=
PLAYORDER=
